<?xml version="1.0" standalone="no"?><!DOCTYPE svg PUBLIC "-//W3C//DTD SVG 1.1//EN" "http://www.w3.org/Graphics/SVG/1.1/DTD/svg11.dtd"><svg t="1595351386838" class="icon" viewBox="0 0 1024 1024" version="1.1" xmlns="http://www.w3.org/2000/svg" p-id="4959" xmlns:xlink="http://www.w3.org/1999/xlink" width="200" height="200"><defs><style type="text/css">html, * {  }
</style></defs><path d="M792.601304 612.565417c25.348318 12.009522 38.029128 31.341822 38.029128 58.002019l0 8.024767-32.012088 226.064712c-1.338485 16.014742-8.009418 29.016871-20.015869 39.005362s-26.004257 14.994506-41.995463 15.023158L446.529381 958.685435c-17.328667 0-31.996738-6.001691-44.002167-18.012236L190.461331 728.606293l34.013675-34.013675c9.334599-9.328459 20.669762-13.998829 34.013675-13.998829 1.339508 0 3.00545 0.326435 4.991688 0.980327 1.9934 0.655939 3.659343 0.983397 4.997827 0.983397l146.039097 30.003338L414.517293 254.459413c0-18.668175 6.330172-34.000372 18.995633-46.009893 12.660344-12.005428 27.6702-18.009166 45.024449-18.009166s32.362059 6.002714 45.022403 18.009166c12.660344 12.009522 18.995633 27.342742 18.995633 46.009893l0 256.062933 34.013675 0c4.010337 0 11.351536 1.338485 22.018479 4.015454L792.601304 612.565417zM372.482945 414.497339c-57.361429-37.354769-86.040608-90.701768-86.040608-160.03895 0-53.351092 18.675338-98.701976 56.036247-136.056746 37.354769-37.360909 82.711793-56.037271 136.057769-56.037271 53.345975 0 98.695836 18.676361 136.055722 56.037271 37.354769 37.354769 56.038294 82.705654 56.038294 136.056746 0 70.670549-28.011984 124.020618-84.034928 160.03895L586.59544 254.459413c0-29.335119-10.666944-54.342676-32.005948-75.027787s-46.679136-31.030737-76.009138-31.030737c-29.335119 0-54.342676 10.345626-75.027787 31.030737s-31.030737 45.692668-31.030737 75.027787l0 160.03895L372.482945 414.498362zM372.482945 414.497339" p-id="4960" fill="#dbdbdb"></path></svg>